<svg xmlns="http://www.w3.org/2000/svg" xml:space="preserve" xmlns:xlink="http://www.w3.org/1999/xlink" style="max-width: 100%;height: auto;" width="990" height="990" viewBox="0 0 990 990">
<rect width="990" height="990" fill="#ffffff" x="0" y="0"></rect>
<g fill="#000000">
<g transform="translate(220,44) scale(3.7766666666667)"><rect width="6" height="6"></rect></g>
<g transform="translate(286,44) scale(3.7766666666667)"><rect width="6" height="6"></rect></g>
<g transform="translate(418,44) scale(3.7766666666667)"><rect width="6" height="6"></rect></g>
<g transform="translate(440,44) scale(3.7766666666667)"><rect width="6" height="6"></rect></g>
<g transform="translate(462,44) scale(3.7766666666667)"><rect width="6" height="6"></rect></g>
<g transform="translate(506,44) scale(3.7766666666667)"><rect width="6" height="6"></rect></g>
<g transform="translate(528,44) scale(3.7766666666667)"><rect width="6" height="6"></rect></g>
<g transform="translate(550,44) scale(3.7766666666667)"><rect width="6" height="6"></rect></g>
<g transform="translate(660,44) scale(3.7766666666667)"><rect width="6" height="6"></rect></g>
<g transform="translate(726,44) scale(3.7766666666667)"><rect width="6" height="6"></rect></g>
<g transform="translate(748,44) scale(3.7766666666667)"><rect width="6" height="6"></rect></g>
<g transform="translate(220,66) scale(3.7766666666667)"><rect width="6" height="6"></rect></g>
<g transform="translate(242,66) scale(3.7766666666667)"><rect width="6" height="6"></rect></g>
<g transform="translate(264,66) scale(3.7766666666667)"><rect width="6" height="6"></rect></g>
<g transform="translate(286,66) scale(3.7766666666667)"><rect width="6" height="6"></rect></g>
<g transform="translate(308,66) scale(3.7766666666667)"><rect width="6" height="6"></rect></g>
<g transform="translate(352,66) scale(3.7766666666667)"><rect width="6" height="6"></rect></g>
<g transform="translate(396,66) scale(3.7766666666667)"><rect width="6" height="6"></rect></g>
<g transform="translate(418,66) scale(3.7766666666667)"><rect width="6" height="6"></rect></g>
<g transform="translate(440,66) scale(3.7766666666667)"><rect width="6" height="6"></rect></g>
<g transform="translate(462,66) scale(3.7766666666667)"><rect width="6" height="6"></rect></g>
<g transform="translate(550,66) scale(3.7766666666667)"><rect width="6" height="6"></rect></g>
<g transform="translate(594,66) scale(3.7766666666667)"><rect width="6" height="6"></rect></g>
<g transform="translate(616,66) scale(3.7766666666667)"><rect width="6" height="6"></rect></g>
<g transform="translate(638,66) scale(3.7766666666667)"><rect width="6" height="6"></rect></g>
<g transform="translate(660,66) scale(3.7766666666667)"><rect width="6" height="6"></rect></g>
<g transform="translate(748,66) scale(3.7766666666667)"><rect width="6" height="6"></rect></g>
<g transform="translate(220,88) scale(3.7766666666667)"><rect width="6" height="6"></rect></g>
<g transform="translate(242,88) scale(3.7766666666667)"><rect width="6" height="6"></rect></g>
<g transform="translate(264,88) scale(3.7766666666667)"><rect width="6" height="6"></rect></g>
<g transform="translate(308,88) scale(3.7766666666667)"><rect width="6" height="6"></rect></g>
<g transform="translate(330,88) scale(3.7766666666667)"><rect width="6" height="6"></rect></g>
<g transform="translate(418,88) scale(3.7766666666667)"><rect width="6" height="6"></rect></g>
<g transform="translate(528,88) scale(3.7766666666667)"><rect width="6" height="6"></rect></g>
<g transform="translate(572,88) scale(3.7766666666667)"><rect width="6" height="6"></rect></g>
<g transform="translate(638,88) scale(3.7766666666667)"><rect width="6" height="6"></rect></g>
<g transform="translate(660,88) scale(3.7766666666667)"><rect width="6" height="6"></rect></g>
<g transform="translate(748,88) scale(3.7766666666667)"><rect width="6" height="6"></rect></g>
<g transform="translate(242,110) scale(3.7766666666667)"><rect width="6" height="6"></rect></g>
<g transform="translate(308,110) scale(3.7766666666667)"><rect width="6" height="6"></rect></g>
<g transform="translate(330,110) scale(3.7766666666667)"><rect width="6" height="6"></rect></g>
<g transform="translate(374,110) scale(3.7766666666667)"><rect width="6" height="6"></rect></g>
<g transform="translate(418,110) scale(3.7766666666667)"><rect width="6" height="6"></rect></g>
<g transform="translate(462,110) scale(3.7766666666667)"><rect width="6" height="6"></rect></g>
<g transform="translate(528,110) scale(3.7766666666667)"><rect width="6" height="6"></rect></g>
<g transform="translate(550,110) scale(3.7766666666667)"><rect width="6" height="6"></rect></g>
<g transform="translate(638,110) scale(3.7766666666667)"><rect width="6" height="6"></rect></g>
<g transform="translate(660,110) scale(3.7766666666667)"><rect width="6" height="6"></rect></g>
<g transform="translate(682,110) scale(3.7766666666667)"><rect width="6" height="6"></rect></g>
<g transform="translate(726,110) scale(3.7766666666667)"><rect width="6" height="6"></rect></g>
<g transform="translate(264,132) scale(3.7766666666667)"><rect width="6" height="6"></rect></g>
<g transform="translate(308,132) scale(3.7766666666667)"><rect width="6" height="6"></rect></g>
<g transform="translate(374,132) scale(3.7766666666667)"><rect width="6" height="6"></rect></g>
<g transform="translate(396,132) scale(3.7766666666667)"><rect width="6" height="6"></rect></g>
<g transform="translate(506,132) scale(3.7766666666667)"><rect width="6" height="6"></rect></g>
<g transform="translate(528,132) scale(3.7766666666667)"><rect width="6" height="6"></rect></g>
<g transform="translate(572,132) scale(3.7766666666667)"><rect width="6" height="6"></rect></g>
<g transform="translate(660,132) scale(3.7766666666667)"><rect width="6" height="6"></rect></g>
<g transform="translate(726,132) scale(3.7766666666667)"><rect width="6" height="6"></rect></g>
<g transform="translate(748,132) scale(3.7766666666667)"><rect width="6" height="6"></rect></g>
<g transform="translate(220,154) scale(3.7766666666667)"><rect width="6" height="6"></rect></g>
<g transform="translate(242,154) scale(3.7766666666667)"><rect width="6" height="6"></rect></g>
<g transform="translate(264,154) scale(3.7766666666667)"><rect width="6" height="6"></rect></g>
<g transform="translate(286,154) scale(3.7766666666667)"><rect width="6" height="6"></rect></g>
<g transform="translate(330,154) scale(3.7766666666667)"><rect width="6" height="6"></rect></g>
<g transform="translate(352,154) scale(3.7766666666667)"><rect width="6" height="6"></rect></g>
<g transform="translate(374,154) scale(3.7766666666667)"><rect width="6" height="6"></rect></g>
<g transform="translate(396,154) scale(3.7766666666667)"><rect width="6" height="6"></rect></g>
<g transform="translate(418,154) scale(3.7766666666667)"><rect width="6" height="6"></rect></g>
<g transform="translate(440,154) scale(3.7766666666667)"><rect width="6" height="6"></rect></g>
<g transform="translate(462,154) scale(3.7766666666667)"><rect width="6" height="6"></rect></g>
<g transform="translate(484,154) scale(3.7766666666667)"><rect width="6" height="6"></rect></g>
<g transform="translate(506,154) scale(3.7766666666667)"><rect width="6" height="6"></rect></g>
<g transform="translate(528,154) scale(3.7766666666667)"><rect width="6" height="6"></rect></g>
<g transform="translate(550,154) scale(3.7766666666667)"><rect width="6" height="6"></rect></g>
<g transform="translate(594,154) scale(3.7766666666667)"><rect width="6" height="6"></rect></g>
<g transform="translate(638,154) scale(3.7766666666667)"><rect width="6" height="6"></rect></g>
<g transform="translate(682,154) scale(3.7766666666667)"><rect width="6" height="6"></rect></g>
<g transform="translate(220,176) scale(3.7766666666667)"><rect width="6" height="6"></rect></g>
<g transform="translate(264,176) scale(3.7766666666667)"><rect width="6" height="6"></rect></g>
<g transform="translate(308,176) scale(3.7766666666667)"><rect width="6" height="6"></rect></g>
<g transform="translate(352,176) scale(3.7766666666667)"><rect width="6" height="6"></rect></g>
<g transform="translate(396,176) scale(3.7766666666667)"><rect width="6" height="6"></rect></g>
<g transform="translate(440,176) scale(3.7766666666667)"><rect width="6" height="6"></rect></g>
<g transform="translate(484,176) scale(3.7766666666667)"><rect width="6" height="6"></rect></g>
<g transform="translate(528,176) scale(3.7766666666667)"><rect width="6" height="6"></rect></g>
<g transform="translate(572,176) scale(3.7766666666667)"><rect width="6" height="6"></rect></g>
<g transform="translate(616,176) scale(3.7766666666667)"><rect width="6" height="6"></rect></g>
<g transform="translate(660,176) scale(3.7766666666667)"><rect width="6" height="6"></rect></g>
<g transform="translate(704,176) scale(3.7766666666667)"><rect width="6" height="6"></rect></g>
<g transform="translate(748,176) scale(3.7766666666667)"><rect width="6" height="6"></rect></g>
<g transform="translate(220,198) scale(3.7766666666667)"><rect width="6" height="6"></rect></g>
<g transform="translate(242,198) scale(3.7766666666667)"><rect width="6" height="6"></rect></g>
<g transform="translate(308,198) scale(3.7766666666667)"><rect width="6" height="6"></rect></g>
<g transform="translate(330,198) scale(3.7766666666667)"><rect width="6" height="6"></rect></g>
<g transform="translate(352,198) scale(3.7766666666667)"><rect width="6" height="6"></rect></g>
<g transform="translate(462,198) scale(3.7766666666667)"><rect width="6" height="6"></rect></g>
<g transform="translate(506,198) scale(3.7766666666667)"><rect width="6" height="6"></rect></g>
<g transform="translate(528,198) scale(3.7766666666667)"><rect width="6" height="6"></rect></g>
<g transform="translate(550,198) scale(3.7766666666667)"><rect width="6" height="6"></rect></g>
<g transform="translate(572,198) scale(3.7766666666667)"><rect width="6" height="6"></rect></g>
<g transform="translate(660,198) scale(3.7766666666667)"><rect width="6" height="6"></rect></g>
<g transform="translate(748,198) scale(3.7766666666667)"><rect width="6" height="6"></rect></g>
<g transform="translate(88,220) scale(3.7766666666667)"><rect width="6" height="6"></rect></g>
<g transform="translate(110,220) scale(3.7766666666667)"><rect width="6" height="6"></rect></g>
<g transform="translate(132,220) scale(3.7766666666667)"><rect width="6" height="6"></rect></g>
<g transform="translate(176,220) scale(3.7766666666667)"><rect width="6" height="6"></rect></g>
<g transform="translate(220,220) scale(3.7766666666667)"><rect width="6" height="6"></rect></g>
<g transform="translate(242,220) scale(3.7766666666667)"><rect width="6" height="6"></rect></g>
<g transform="translate(308,220) scale(3.7766666666667)"><rect width="6" height="6"></rect></g>
<g transform="translate(330,220) scale(3.7766666666667)"><rect width="6" height="6"></rect></g>
<g transform="translate(352,220) scale(3.7766666666667)"><rect width="6" height="6"></rect></g>
<g transform="translate(374,220) scale(3.7766666666667)"><rect width="6" height="6"></rect></g>
<g transform="translate(396,220) scale(3.7766666666667)"><rect width="6" height="6"></rect></g>
<g transform="translate(418,220) scale(3.7766666666667)"><rect width="6" height="6"></rect></g>
<g transform="translate(528,220) scale(3.7766666666667)"><rect width="6" height="6"></rect></g>
<g transform="translate(550,220) scale(3.7766666666667)"><rect width="6" height="6"></rect></g>
<g transform="translate(594,220) scale(3.7766666666667)"><rect width="6" height="6"></rect></g>
<g transform="translate(682,220) scale(3.7766666666667)"><rect width="6" height="6"></rect></g>
<g transform="translate(770,220) scale(3.7766666666667)"><rect width="6" height="6"></rect></g>
<g transform="translate(792,220) scale(3.7766666666667)"><rect width="6" height="6"></rect></g>
<g transform="translate(814,220) scale(3.7766666666667)"><rect width="6" height="6"></rect></g>
<g transform="translate(880,220) scale(3.7766666666667)"><rect width="6" height="6"></rect></g>
<g transform="translate(902,220) scale(3.7766666666667)"><rect width="6" height="6"></rect></g>
<g transform="translate(924,220) scale(3.7766666666667)"><rect width="6" height="6"></rect></g>
<g transform="translate(88,242) scale(3.7766666666667)"><rect width="6" height="6"></rect></g>
<g transform="translate(110,242) scale(3.7766666666667)"><rect width="6" height="6"></rect></g>
<g transform="translate(154,242) scale(3.7766666666667)"><rect width="6" height="6"></rect></g>
<g transform="translate(220,242) scale(3.7766666666667)"><rect width="6" height="6"></rect></g>
<g transform="translate(242,242) scale(3.7766666666667)"><rect width="6" height="6"></rect></g>
<g transform="translate(308,242) scale(3.7766666666667)"><rect width="6" height="6"></rect></g>
<g transform="translate(352,242) scale(3.7766666666667)"><rect width="6" height="6"></rect></g>
<g transform="translate(396,242) scale(3.7766666666667)"><rect width="6" height="6"></rect></g>
<g transform="translate(418,242) scale(3.7766666666667)"><rect width="6" height="6"></rect></g>
<g transform="translate(440,242) scale(3.7766666666667)"><rect width="6" height="6"></rect></g>
<g transform="translate(506,242) scale(3.7766666666667)"><rect width="6" height="6"></rect></g>
<g transform="translate(528,242) scale(3.7766666666667)"><rect width="6" height="6"></rect></g>
<g transform="translate(550,242) scale(3.7766666666667)"><rect width="6" height="6"></rect></g>
<g transform="translate(616,242) scale(3.7766666666667)"><rect width="6" height="6"></rect></g>
<g transform="translate(660,242) scale(3.7766666666667)"><rect width="6" height="6"></rect></g>
<g transform="translate(682,242) scale(3.7766666666667)"><rect width="6" height="6"></rect></g>
<g transform="translate(704,242) scale(3.7766666666667)"><rect width="6" height="6"></rect></g>
<g transform="translate(726,242) scale(3.7766666666667)"><rect width="6" height="6"></rect></g>
<g transform="translate(748,242) scale(3.7766666666667)"><rect width="6" height="6"></rect></g>
<g transform="translate(770,242) scale(3.7766666666667)"><rect width="6" height="6"></rect></g>
<g transform="translate(792,242) scale(3.7766666666667)"><rect width="6" height="6"></rect></g>
<g transform="translate(814,242) scale(3.7766666666667)"><rect width="6" height="6"></rect></g>
<g transform="translate(836,242) scale(3.7766666666667)"><rect width="6" height="6"></rect></g>
<g transform="translate(880,242) scale(3.7766666666667)"><rect width="6" height="6"></rect></g>
<g transform="translate(902,242) scale(3.7766666666667)"><rect width="6" height="6"></rect></g>
<g transform="translate(924,242) scale(3.7766666666667)"><rect width="6" height="6"></rect></g>
<g transform="translate(66,264) scale(3.7766666666667)"><rect width="6" height="6"></rect></g>
<g transform="translate(110,264) scale(3.7766666666667)"><rect width="6" height="6"></rect></g>
<g transform="translate(176,264) scale(3.7766666666667)"><rect width="6" height="6"></rect></g>
<g transform="translate(198,264) scale(3.7766666666667)"><rect width="6" height="6"></rect></g>
<g transform="translate(220,264) scale(3.7766666666667)"><rect width="6" height="6"></rect></g>
<g transform="translate(264,264) scale(3.7766666666667)"><rect width="6" height="6"></rect></g>
<g transform="translate(308,264) scale(3.7766666666667)"><rect width="6" height="6"></rect></g>
<g transform="translate(330,264) scale(3.7766666666667)"><rect width="6" height="6"></rect></g>
<g transform="translate(440,264) scale(3.7766666666667)"><rect width="6" height="6"></rect></g>
<g transform="translate(462,264) scale(3.7766666666667)"><rect width="6" height="6"></rect></g>
<g transform="translate(528,264) scale(3.7766666666667)"><rect width="6" height="6"></rect></g>
<g transform="translate(572,264) scale(3.7766666666667)"><rect width="6" height="6"></rect></g>
<g transform="translate(594,264) scale(3.7766666666667)"><rect width="6" height="6"></rect></g>
<g transform="translate(616,264) scale(3.7766666666667)"><rect width="6" height="6"></rect></g>
<g transform="translate(638,264) scale(3.7766666666667)"><rect width="6" height="6"></rect></g>
<g transform="translate(660,264) scale(3.7766666666667)"><rect width="6" height="6"></rect></g>
<g transform="translate(682,264) scale(3.7766666666667)"><rect width="6" height="6"></rect></g>
<g transform="translate(748,264) scale(3.7766666666667)"><rect width="6" height="6"></rect></g>
<g transform="translate(770,264) scale(3.7766666666667)"><rect width="6" height="6"></rect></g>
<g transform="translate(836,264) scale(3.7766666666667)"><rect width="6" height="6"></rect></g>
<g transform="translate(88,286) scale(3.7766666666667)"><rect width="6" height="6"></rect></g>
<g transform="translate(110,286) scale(3.7766666666667)"><rect width="6" height="6"></rect></g>
<g transform="translate(198,286) scale(3.7766666666667)"><rect width="6" height="6"></rect></g>
<g transform="translate(242,286) scale(3.7766666666667)"><rect width="6" height="6"></rect></g>
<g transform="translate(308,286) scale(3.7766666666667)"><rect width="6" height="6"></rect></g>
<g transform="translate(374,286) scale(3.7766666666667)"><rect width="6" height="6"></rect></g>
<g transform="translate(418,286) scale(3.7766666666667)"><rect width="6" height="6"></rect></g>
<g transform="translate(462,286) scale(3.7766666666667)"><rect width="6" height="6"></rect></g>
<g transform="translate(484,286) scale(3.7766666666667)"><rect width="6" height="6"></rect></g>
<g transform="translate(528,286) scale(3.7766666666667)"><rect width="6" height="6"></rect></g>
<g transform="translate(550,286) scale(3.7766666666667)"><rect width="6" height="6"></rect></g>
<g transform="translate(572,286) scale(3.7766666666667)"><rect width="6" height="6"></rect></g>
<g transform="translate(594,286) scale(3.7766666666667)"><rect width="6" height="6"></rect></g>
<g transform="translate(616,286) scale(3.7766666666667)"><rect width="6" height="6"></rect></g>
<g transform="translate(638,286) scale(3.7766666666667)"><rect width="6" height="6"></rect></g>
<g transform="translate(660,286) scale(3.7766666666667)"><rect width="6" height="6"></rect></g>
<g transform="translate(726,286) scale(3.7766666666667)"><rect width="6" height="6"></rect></g>
<g transform="translate(748,286) scale(3.7766666666667)"><rect width="6" height="6"></rect></g>
<g transform="translate(792,286) scale(3.7766666666667)"><rect width="6" height="6"></rect></g>
<g transform="translate(814,286) scale(3.7766666666667)"><rect width="6" height="6"></rect></g>
<g transform="translate(836,286) scale(3.7766666666667)"><rect width="6" height="6"></rect></g>
<g transform="translate(858,286) scale(3.7766666666667)"><rect width="6" height="6"></rect></g>
<g transform="translate(902,286) scale(3.7766666666667)"><rect width="6" height="6"></rect></g>
<g transform="translate(44,308) scale(3.7766666666667)"><rect width="6" height="6"></rect></g>
<g transform="translate(88,308) scale(3.7766666666667)"><rect width="6" height="6"></rect></g>
<g transform="translate(132,308) scale(3.7766666666667)"><rect width="6" height="6"></rect></g>
<g transform="translate(154,308) scale(3.7766666666667)"><rect width="6" height="6"></rect></g>
<g transform="translate(176,308) scale(3.7766666666667)"><rect width="6" height="6"></rect></g>
<g transform="translate(198,308) scale(3.7766666666667)"><rect width="6" height="6"></rect></g>
<g transform="translate(330,308) scale(3.7766666666667)"><rect width="6" height="6"></rect></g>
<g transform="translate(396,308) scale(3.7766666666667)"><rect width="6" height="6"></rect></g>
<g transform="translate(440,308) scale(3.7766666666667)"><rect width="6" height="6"></rect></g>
<g transform="translate(506,308) scale(3.7766666666667)"><rect width="6" height="6"></rect></g>
<g transform="translate(550,308) scale(3.7766666666667)"><rect width="6" height="6"></rect></g>
<g transform="translate(572,308) scale(3.7766666666667)"><rect width="6" height="6"></rect></g>
<g transform="translate(594,308) scale(3.7766666666667)"><rect width="6" height="6"></rect></g>
<g transform="translate(616,308) scale(3.7766666666667)"><rect width="6" height="6"></rect></g>
<g transform="translate(638,308) scale(3.7766666666667)"><rect width="6" height="6"></rect></g>
<g transform="translate(682,308) scale(3.7766666666667)"><rect width="6" height="6"></rect></g>
<g transform="translate(726,308) scale(3.7766666666667)"><rect width="6" height="6"></rect></g>
<g transform="translate(836,308) scale(3.7766666666667)"><rect width="6" height="6"></rect></g>
<g transform="translate(858,308) scale(3.7766666666667)"><rect width="6" height="6"></rect></g>
<g transform="translate(880,308) scale(3.7766666666667)"><rect width="6" height="6"></rect></g>
<g transform="translate(110,330) scale(3.7766666666667)"><rect width="6" height="6"></rect></g>
<g transform="translate(154,330) scale(3.7766666666667)"><rect width="6" height="6"></rect></g>
<g transform="translate(198,330) scale(3.7766666666667)"><rect width="6" height="6"></rect></g>
<g transform="translate(220,330) scale(3.7766666666667)"><rect width="6" height="6"></rect></g>
<g transform="translate(242,330) scale(3.7766666666667)"><rect width="6" height="6"></rect></g>
<g transform="translate(264,330) scale(3.7766666666667)"><rect width="6" height="6"></rect></g>
<g transform="translate(440,330) scale(3.7766666666667)"><rect width="6" height="6"></rect></g>
<g transform="translate(462,330) scale(3.7766666666667)"><rect width="6" height="6"></rect></g>
<g transform="translate(550,330) scale(3.7766666666667)"><rect width="6" height="6"></rect></g>
<g transform="translate(572,330) scale(3.7766666666667)"><rect width="6" height="6"></rect></g>
<g transform="translate(594,330) scale(3.7766666666667)"><rect width="6" height="6"></rect></g>
<g transform="translate(660,330) scale(3.7766666666667)"><rect width="6" height="6"></rect></g>
<g transform="translate(726,330) scale(3.7766666666667)"><rect width="6" height="6"></rect></g>
<g transform="translate(748,330) scale(3.7766666666667)"><rect width="6" height="6"></rect></g>
<g transform="translate(770,330) scale(3.7766666666667)"><rect width="6" height="6"></rect></g>
<g transform="translate(792,330) scale(3.7766666666667)"><rect width="6" height="6"></rect></g>
<g transform="translate(814,330) scale(3.7766666666667)"><rect width="6" height="6"></rect></g>
<g transform="translate(836,330) scale(3.7766666666667)"><rect width="6" height="6"></rect></g>
<g transform="translate(924,330) scale(3.7766666666667)"><rect width="6" height="6"></rect></g>
<g transform="translate(44,352) scale(3.7766666666667)"><rect width="6" height="6"></rect></g>
<g transform="translate(66,352) scale(3.7766666666667)"><rect width="6" height="6"></rect></g>
<g transform="translate(88,352) scale(3.7766666666667)"><rect width="6" height="6"></rect></g>
<g transform="translate(154,352) scale(3.7766666666667)"><rect width="6" height="6"></rect></g>
<g transform="translate(176,352) scale(3.7766666666667)"><rect width="6" height="6"></rect></g>
<g transform="translate(242,352) scale(3.7766666666667)"><rect width="6" height="6"></rect></g>
<g transform="translate(286,352) scale(3.7766666666667)"><rect width="6" height="6"></rect></g>
<g transform="translate(352,352) scale(3.7766666666667)"><rect width="6" height="6"></rect></g>
<g transform="translate(374,352) scale(3.7766666666667)"><rect width="6" height="6"></rect></g>
<g transform="translate(396,352) scale(3.7766666666667)"><rect width="6" height="6"></rect></g>
<g transform="translate(440,352) scale(3.7766666666667)"><rect width="6" height="6"></rect></g>
<g transform="translate(484,352) scale(3.7766666666667)"><rect width="6" height="6"></rect></g>
<g transform="translate(550,352) scale(3.7766666666667)"><rect width="6" height="6"></rect></g>
<g transform="translate(572,352) scale(3.7766666666667)"><rect width="6" height="6"></rect></g>
<g transform="translate(638,352) scale(3.7766666666667)"><rect width="6" height="6"></rect></g>
<g transform="translate(704,352) scale(3.7766666666667)"><rect width="6" height="6"></rect></g>
<g transform="translate(770,352) scale(3.7766666666667)"><rect width="6" height="6"></rect></g>
<g transform="translate(814,352) scale(3.7766666666667)"><rect width="6" height="6"></rect></g>
<g transform="translate(858,352) scale(3.7766666666667)"><rect width="6" height="6"></rect></g>
<g transform="translate(880,352) scale(3.7766666666667)"><rect width="6" height="6"></rect></g>
<g transform="translate(66,374) scale(3.7766666666667)"><rect width="6" height="6"></rect></g>
<g transform="translate(110,374) scale(3.7766666666667)"><rect width="6" height="6"></rect></g>
<g transform="translate(132,374) scale(3.7766666666667)"><rect width="6" height="6"></rect></g>
<g transform="translate(154,374) scale(3.7766666666667)"><rect width="6" height="6"></rect></g>
<g transform="translate(220,374) scale(3.7766666666667)"><rect width="6" height="6"></rect></g>
<g transform="translate(242,374) scale(3.7766666666667)"><rect width="6" height="6"></rect></g>
<g transform="translate(264,374) scale(3.7766666666667)"><rect width="6" height="6"></rect></g>
<g transform="translate(330,374) scale(3.7766666666667)"><rect width="6" height="6"></rect></g>
<g transform="translate(352,374) scale(3.7766666666667)"><rect width="6" height="6"></rect></g>
<g transform="translate(396,374) scale(3.7766666666667)"><rect width="6" height="6"></rect></g>
<g transform="translate(484,374) scale(3.7766666666667)"><rect width="6" height="6"></rect></g>
<g transform="translate(506,374) scale(3.7766666666667)"><rect width="6" height="6"></rect></g>
<g transform="translate(528,374) scale(3.7766666666667)"><rect width="6" height="6"></rect></g>
<g transform="translate(572,374) scale(3.7766666666667)"><rect width="6" height="6"></rect></g>
<g transform="translate(616,374) scale(3.7766666666667)"><rect width="6" height="6"></rect></g>
<g transform="translate(638,374) scale(3.7766666666667)"><rect width="6" height="6"></rect></g>
<g transform="translate(660,374) scale(3.7766666666667)"><rect width="6" height="6"></rect></g>
<g transform="translate(704,374) scale(3.7766666666667)"><rect width="6" height="6"></rect></g>
<g transform="translate(748,374) scale(3.7766666666667)"><rect width="6" height="6"></rect></g>
<g transform="translate(792,374) scale(3.7766666666667)"><rect width="6" height="6"></rect></g>
<g transform="translate(814,374) scale(3.7766666666667)"><rect width="6" height="6"></rect></g>
<g transform="translate(858,374) scale(3.7766666666667)"><rect width="6" height="6"></rect></g>
<g transform="translate(44,396) scale(3.7766666666667)"><rect width="6" height="6"></rect></g>
<g transform="translate(88,396) scale(3.7766666666667)"><rect width="6" height="6"></rect></g>
<g transform="translate(110,396) scale(3.7766666666667)"><rect width="6" height="6"></rect></g>
<g transform="translate(132,396) scale(3.7766666666667)"><rect width="6" height="6"></rect></g>
<g transform="translate(154,396) scale(3.7766666666667)"><rect width="6" height="6"></rect></g>
<g transform="translate(176,396) scale(3.7766666666667)"><rect width="6" height="6"></rect></g>
<g transform="translate(220,396) scale(3.7766666666667)"><rect width="6" height="6"></rect></g>
<g transform="translate(264,396) scale(3.7766666666667)"><rect width="6" height="6"></rect></g>
<g transform="translate(286,396) scale(3.7766666666667)"><rect width="6" height="6"></rect></g>
<g transform="translate(308,396) scale(3.7766666666667)"><rect width="6" height="6"></rect></g>
<g transform="translate(352,396) scale(3.7766666666667)"><rect width="6" height="6"></rect></g>
<g transform="translate(374,396) scale(3.7766666666667)"><rect width="6" height="6"></rect></g>
<g transform="translate(418,396) scale(3.7766666666667)"><rect width="6" height="6"></rect></g>
<g transform="translate(462,396) scale(3.7766666666667)"><rect width="6" height="6"></rect></g>
<g transform="translate(484,396) scale(3.7766666666667)"><rect width="6" height="6"></rect></g>
<g transform="translate(528,396) scale(3.7766666666667)"><rect width="6" height="6"></rect></g>
<g transform="translate(550,396) scale(3.7766666666667)"><rect width="6" height="6"></rect></g>
<g transform="translate(616,396) scale(3.7766666666667)"><rect width="6" height="6"></rect></g>
<g transform="translate(638,396) scale(3.7766666666667)"><rect width="6" height="6"></rect></g>
<g transform="translate(682,396) scale(3.7766666666667)"><rect width="6" height="6"></rect></g>
<g transform="translate(770,396) scale(3.7766666666667)"><rect width="6" height="6"></rect></g>
<g transform="translate(814,396) scale(3.7766666666667)"><rect width="6" height="6"></rect></g>
<g transform="translate(880,396) scale(3.7766666666667)"><rect width="6" height="6"></rect></g>
<g transform="translate(44,418) scale(3.7766666666667)"><rect width="6" height="6"></rect></g>
<g transform="translate(66,418) scale(3.7766666666667)"><rect width="6" height="6"></rect></g>
<g transform="translate(88,418) scale(3.7766666666667)"><rect width="6" height="6"></rect></g>
<g transform="translate(110,418) scale(3.7766666666667)"><rect width="6" height="6"></rect></g>
<g transform="translate(198,418) scale(3.7766666666667)"><rect width="6" height="6"></rect></g>
<g transform="translate(308,418) scale(3.7766666666667)"><rect width="6" height="6"></rect></g>
<g transform="translate(352,418) scale(3.7766666666667)"><rect width="6" height="6"></rect></g>
<g transform="translate(484,418) scale(3.7766666666667)"><rect width="6" height="6"></rect></g>
<g transform="translate(528,418) scale(3.7766666666667)"><rect width="6" height="6"></rect></g>
<g transform="translate(550,418) scale(3.7766666666667)"><rect width="6" height="6"></rect></g>
<g transform="translate(594,418) scale(3.7766666666667)"><rect width="6" height="6"></rect></g>
<g transform="translate(616,418) scale(3.7766666666667)"><rect width="6" height="6"></rect></g>
<g transform="translate(660,418) scale(3.7766666666667)"><rect width="6" height="6"></rect></g>
<g transform="translate(726,418) scale(3.7766666666667)"><rect width="6" height="6"></rect></g>
<g transform="translate(792,418) scale(3.7766666666667)"><rect width="6" height="6"></rect></g>
<g transform="translate(814,418) scale(3.7766666666667)"><rect width="6" height="6"></rect></g>
<g transform="translate(836,418) scale(3.7766666666667)"><rect width="6" height="6"></rect></g>
<g transform="translate(902,418) scale(3.7766666666667)"><rect width="6" height="6"></rect></g>
<g transform="translate(924,418) scale(3.7766666666667)"><rect width="6" height="6"></rect></g>
<g transform="translate(110,440) scale(3.7766666666667)"><rect width="6" height="6"></rect></g>
<g transform="translate(154,440) scale(3.7766666666667)"><rect width="6" height="6"></rect></g>
<g transform="translate(176,440) scale(3.7766666666667)"><rect width="6" height="6"></rect></g>
<g transform="translate(220,440) scale(3.7766666666667)"><rect width="6" height="6"></rect></g>
<g transform="translate(242,440) scale(3.7766666666667)"><rect width="6" height="6"></rect></g>
<g transform="translate(286,440) scale(3.7766666666667)"><rect width="6" height="6"></rect></g>
<g transform="translate(308,440) scale(3.7766666666667)"><rect width="6" height="6"></rect></g>
<g transform="translate(330,440) scale(3.7766666666667)"><rect width="6" height="6"></rect></g>
<g transform="translate(352,440) scale(3.7766666666667)"><rect width="6" height="6"></rect></g>
<g transform="translate(374,440) scale(3.7766666666667)"><rect width="6" height="6"></rect></g>
<g transform="translate(462,440) scale(3.7766666666667)"><rect width="6" height="6"></rect></g>
<g transform="translate(484,440) scale(3.7766666666667)"><rect width="6" height="6"></rect></g>
<g transform="translate(550,440) scale(3.7766666666667)"><rect width="6" height="6"></rect></g>
<g transform="translate(616,440) scale(3.7766666666667)"><rect width="6" height="6"></rect></g>
<g transform="translate(638,440) scale(3.7766666666667)"><rect width="6" height="6"></rect></g>
<g transform="translate(660,440) scale(3.7766666666667)"><rect width="6" height="6"></rect></g>
<g transform="translate(682,440) scale(3.7766666666667)"><rect width="6" height="6"></rect></g>
<g transform="translate(704,440) scale(3.7766666666667)"><rect width="6" height="6"></rect></g>
<g transform="translate(748,440) scale(3.7766666666667)"><rect width="6" height="6"></rect></g>
<g transform="translate(792,440) scale(3.7766666666667)"><rect width="6" height="6"></rect></g>
<g transform="translate(836,440) scale(3.7766666666667)"><rect width="6" height="6"></rect></g>
<g transform="translate(880,440) scale(3.7766666666667)"><rect width="6" height="6"></rect></g>
<g transform="translate(198,462) scale(3.7766666666667)"><rect width="6" height="6"></rect></g>
<g transform="translate(220,462) scale(3.7766666666667)"><rect width="6" height="6"></rect></g>
<g transform="translate(264,462) scale(3.7766666666667)"><rect width="6" height="6"></rect></g>
<g transform="translate(286,462) scale(3.7766666666667)"><rect width="6" height="6"></rect></g>
<g transform="translate(352,462) scale(3.7766666666667)"><rect width="6" height="6"></rect></g>
<g transform="translate(396,462) scale(3.7766666666667)"><rect width="6" height="6"></rect></g>
<g transform="translate(418,462) scale(3.7766666666667)"><rect width="6" height="6"></rect></g>
<g transform="translate(440,462) scale(3.7766666666667)"><rect width="6" height="6"></rect></g>
<g transform="translate(462,462) scale(3.7766666666667)"><rect width="6" height="6"></rect></g>
<g transform="translate(484,462) scale(3.7766666666667)"><rect width="6" height="6"></rect></g>
<g transform="translate(506,462) scale(3.7766666666667)"><rect width="6" height="6"></rect></g>
<g transform="translate(748,462) scale(3.7766666666667)"><rect width="6" height="6"></rect></g>
<g transform="translate(770,462) scale(3.7766666666667)"><rect width="6" height="6"></rect></g>
<g transform="translate(836,462) scale(3.7766666666667)"><rect width="6" height="6"></rect></g>
<g transform="translate(858,462) scale(3.7766666666667)"><rect width="6" height="6"></rect></g>
<g transform="translate(902,462) scale(3.7766666666667)"><rect width="6" height="6"></rect></g>
<g transform="translate(924,462) scale(3.7766666666667)"><rect width="6" height="6"></rect></g>
<g transform="translate(44,484) scale(3.7766666666667)"><rect width="6" height="6"></rect></g>
<g transform="translate(110,484) scale(3.7766666666667)"><rect width="6" height="6"></rect></g>
<g transform="translate(132,484) scale(3.7766666666667)"><rect width="6" height="6"></rect></g>
<g transform="translate(154,484) scale(3.7766666666667)"><rect width="6" height="6"></rect></g>
<g transform="translate(176,484) scale(3.7766666666667)"><rect width="6" height="6"></rect></g>
<g transform="translate(198,484) scale(3.7766666666667)"><rect width="6" height="6"></rect></g>
<g transform="translate(242,484) scale(3.7766666666667)"><rect width="6" height="6"></rect></g>
<g transform="translate(308,484) scale(3.7766666666667)"><rect width="6" height="6"></rect></g>
<g transform="translate(374,484) scale(3.7766666666667)"><rect width="6" height="6"></rect></g>
<g transform="translate(396,484) scale(3.7766666666667)"><rect width="6" height="6"></rect></g>
<g transform="translate(418,484) scale(3.7766666666667)"><rect width="6" height="6"></rect></g>
<g transform="translate(440,484) scale(3.7766666666667)"><rect width="6" height="6"></rect></g>
<g transform="translate(506,484) scale(3.7766666666667)"><rect width="6" height="6"></rect></g>
<g transform="translate(572,484) scale(3.7766666666667)"><rect width="6" height="6"></rect></g>
<g transform="translate(594,484) scale(3.7766666666667)"><rect width="6" height="6"></rect></g>
<g transform="translate(638,484) scale(3.7766666666667)"><rect width="6" height="6"></rect></g>
<g transform="translate(682,484) scale(3.7766666666667)"><rect width="6" height="6"></rect></g>
<g transform="translate(704,484) scale(3.7766666666667)"><rect width="6" height="6"></rect></g>
<g transform="translate(748,484) scale(3.7766666666667)"><rect width="6" height="6"></rect></g>
<g transform="translate(814,484) scale(3.7766666666667)"><rect width="6" height="6"></rect></g>
<g transform="translate(880,484) scale(3.7766666666667)"><rect width="6" height="6"></rect></g>
<g transform="translate(924,484) scale(3.7766666666667)"><rect width="6" height="6"></rect></g>
<g transform="translate(66,506) scale(3.7766666666667)"><rect width="6" height="6"></rect></g>
<g transform="translate(88,506) scale(3.7766666666667)"><rect width="6" height="6"></rect></g>
<g transform="translate(110,506) scale(3.7766666666667)"><rect width="6" height="6"></rect></g>
<g transform="translate(132,506) scale(3.7766666666667)"><rect width="6" height="6"></rect></g>
<g transform="translate(154,506) scale(3.7766666666667)"><rect width="6" height="6"></rect></g>
<g transform="translate(198,506) scale(3.7766666666667)"><rect width="6" height="6"></rect></g>
<g transform="translate(352,506) scale(3.7766666666667)"><rect width="6" height="6"></rect></g>
<g transform="translate(374,506) scale(3.7766666666667)"><rect width="6" height="6"></rect></g>
<g transform="translate(418,506) scale(3.7766666666667)"><rect width="6" height="6"></rect></g>
<g transform="translate(440,506) scale(3.7766666666667)"><rect width="6" height="6"></rect></g>
<g transform="translate(550,506) scale(3.7766666666667)"><rect width="6" height="6"></rect></g>
<g transform="translate(572,506) scale(3.7766666666667)"><rect width="6" height="6"></rect></g>
<g transform="translate(594,506) scale(3.7766666666667)"><rect width="6" height="6"></rect></g>
<g transform="translate(660,506) scale(3.7766666666667)"><rect width="6" height="6"></rect></g>
<g transform="translate(682,506) scale(3.7766666666667)"><rect width="6" height="6"></rect></g>
<g transform="translate(704,506) scale(3.7766666666667)"><rect width="6" height="6"></rect></g>
<g transform="translate(726,506) scale(3.7766666666667)"><rect width="6" height="6"></rect></g>
<g transform="translate(748,506) scale(3.7766666666667)"><rect width="6" height="6"></rect></g>
<g transform="translate(770,506) scale(3.7766666666667)"><rect width="6" height="6"></rect></g>
<g transform="translate(792,506) scale(3.7766666666667)"><rect width="6" height="6"></rect></g>
<g transform="translate(814,506) scale(3.7766666666667)"><rect width="6" height="6"></rect></g>
<g transform="translate(836,506) scale(3.7766666666667)"><rect width="6" height="6"></rect></g>
<g transform="translate(858,506) scale(3.7766666666667)"><rect width="6" height="6"></rect></g>
<g transform="translate(902,506) scale(3.7766666666667)"><rect width="6" height="6"></rect></g>
<g transform="translate(924,506) scale(3.7766666666667)"><rect width="6" height="6"></rect></g>
<g transform="translate(132,528) scale(3.7766666666667)"><rect width="6" height="6"></rect></g>
<g transform="translate(154,528) scale(3.7766666666667)"><rect width="6" height="6"></rect></g>
<g transform="translate(176,528) scale(3.7766666666667)"><rect width="6" height="6"></rect></g>
<g transform="translate(242,528) scale(3.7766666666667)"><rect width="6" height="6"></rect></g>
<g transform="translate(286,528) scale(3.7766666666667)"><rect width="6" height="6"></rect></g>
<g transform="translate(330,528) scale(3.7766666666667)"><rect width="6" height="6"></rect></g>
<g transform="translate(352,528) scale(3.7766666666667)"><rect width="6" height="6"></rect></g>
<g transform="translate(374,528) scale(3.7766666666667)"><rect width="6" height="6"></rect></g>
<g transform="translate(396,528) scale(3.7766666666667)"><rect width="6" height="6"></rect></g>
<g transform="translate(418,528) scale(3.7766666666667)"><rect width="6" height="6"></rect></g>
<g transform="translate(484,528) scale(3.7766666666667)"><rect width="6" height="6"></rect></g>
<g transform="translate(506,528) scale(3.7766666666667)"><rect width="6" height="6"></rect></g>
<g transform="translate(550,528) scale(3.7766666666667)"><rect width="6" height="6"></rect></g>
<g transform="translate(572,528) scale(3.7766666666667)"><rect width="6" height="6"></rect></g>
<g transform="translate(594,528) scale(3.7766666666667)"><rect width="6" height="6"></rect></g>
<g transform="translate(616,528) scale(3.7766666666667)"><rect width="6" height="6"></rect></g>
<g transform="translate(638,528) scale(3.7766666666667)"><rect width="6" height="6"></rect></g>
<g transform="translate(660,528) scale(3.7766666666667)"><rect width="6" height="6"></rect></g>
<g transform="translate(704,528) scale(3.7766666666667)"><rect width="6" height="6"></rect></g>
<g transform="translate(748,528) scale(3.7766666666667)"><rect width="6" height="6"></rect></g>
<g transform="translate(770,528) scale(3.7766666666667)"><rect width="6" height="6"></rect></g>
<g transform="translate(792,528) scale(3.7766666666667)"><rect width="6" height="6"></rect></g>
<g transform="translate(814,528) scale(3.7766666666667)"><rect width="6" height="6"></rect></g>
<g transform="translate(858,528) scale(3.7766666666667)"><rect width="6" height="6"></rect></g>
<g transform="translate(88,550) scale(3.7766666666667)"><rect width="6" height="6"></rect></g>
<g transform="translate(110,550) scale(3.7766666666667)"><rect width="6" height="6"></rect></g>
<g transform="translate(132,550) scale(3.7766666666667)"><rect width="6" height="6"></rect></g>
<g transform="translate(198,550) scale(3.7766666666667)"><rect width="6" height="6"></rect></g>
<g transform="translate(220,550) scale(3.7766666666667)"><rect width="6" height="6"></rect></g>
<g transform="translate(242,550) scale(3.7766666666667)"><rect width="6" height="6"></rect></g>
<g transform="translate(286,550) scale(3.7766666666667)"><rect width="6" height="6"></rect></g>
<g transform="translate(308,550) scale(3.7766666666667)"><rect width="6" height="6"></rect></g>
<g transform="translate(440,550) scale(3.7766666666667)"><rect width="6" height="6"></rect></g>
<g transform="translate(484,550) scale(3.7766666666667)"><rect width="6" height="6"></rect></g>
<g transform="translate(550,550) scale(3.7766666666667)"><rect width="6" height="6"></rect></g>
<g transform="translate(572,550) scale(3.7766666666667)"><rect width="6" height="6"></rect></g>
<g transform="translate(594,550) scale(3.7766666666667)"><rect width="6" height="6"></rect></g>
<g transform="translate(616,550) scale(3.7766666666667)"><rect width="6" height="6"></rect></g>
<g transform="translate(638,550) scale(3.7766666666667)"><rect width="6" height="6"></rect></g>
<g transform="translate(726,550) scale(3.7766666666667)"><rect width="6" height="6"></rect></g>
<g transform="translate(814,550) scale(3.7766666666667)"><rect width="6" height="6"></rect></g>
<g transform="translate(858,550) scale(3.7766666666667)"><rect width="6" height="6"></rect></g>
<g transform="translate(902,550) scale(3.7766666666667)"><rect width="6" height="6"></rect></g>
<g transform="translate(924,550) scale(3.7766666666667)"><rect width="6" height="6"></rect></g>
<g transform="translate(110,572) scale(3.7766666666667)"><rect width="6" height="6"></rect></g>
<g transform="translate(154,572) scale(3.7766666666667)"><rect width="6" height="6"></rect></g>
<g transform="translate(176,572) scale(3.7766666666667)"><rect width="6" height="6"></rect></g>
<g transform="translate(198,572) scale(3.7766666666667)"><rect width="6" height="6"></rect></g>
<g transform="translate(220,572) scale(3.7766666666667)"><rect width="6" height="6"></rect></g>
<g transform="translate(264,572) scale(3.7766666666667)"><rect width="6" height="6"></rect></g>
<g transform="translate(308,572) scale(3.7766666666667)"><rect width="6" height="6"></rect></g>
<g transform="translate(330,572) scale(3.7766666666667)"><rect width="6" height="6"></rect></g>
<g transform="translate(352,572) scale(3.7766666666667)"><rect width="6" height="6"></rect></g>
<g transform="translate(374,572) scale(3.7766666666667)"><rect width="6" height="6"></rect></g>
<g transform="translate(418,572) scale(3.7766666666667)"><rect width="6" height="6"></rect></g>
<g transform="translate(440,572) scale(3.7766666666667)"><rect width="6" height="6"></rect></g>
<g transform="translate(484,572) scale(3.7766666666667)"><rect width="6" height="6"></rect></g>
<g transform="translate(528,572) scale(3.7766666666667)"><rect width="6" height="6"></rect></g>
<g transform="translate(572,572) scale(3.7766666666667)"><rect width="6" height="6"></rect></g>
<g transform="translate(616,572) scale(3.7766666666667)"><rect width="6" height="6"></rect></g>
<g transform="translate(660,572) scale(3.7766666666667)"><rect width="6" height="6"></rect></g>
<g transform="translate(682,572) scale(3.7766666666667)"><rect width="6" height="6"></rect></g>
<g transform="translate(814,572) scale(3.7766666666667)"><rect width="6" height="6"></rect></g>
<g transform="translate(858,572) scale(3.7766666666667)"><rect width="6" height="6"></rect></g>
<g transform="translate(880,572) scale(3.7766666666667)"><rect width="6" height="6"></rect></g>
<g transform="translate(902,572) scale(3.7766666666667)"><rect width="6" height="6"></rect></g>
<g transform="translate(924,572) scale(3.7766666666667)"><rect width="6" height="6"></rect></g>
<g transform="translate(110,594) scale(3.7766666666667)"><rect width="6" height="6"></rect></g>
<g transform="translate(154,594) scale(3.7766666666667)"><rect width="6" height="6"></rect></g>
<g transform="translate(198,594) scale(3.7766666666667)"><rect width="6" height="6"></rect></g>
<g transform="translate(242,594) scale(3.7766666666667)"><rect width="6" height="6"></rect></g>
<g transform="translate(308,594) scale(3.7766666666667)"><rect width="6" height="6"></rect></g>
<g transform="translate(396,594) scale(3.7766666666667)"><rect width="6" height="6"></rect></g>
<g transform="translate(418,594) scale(3.7766666666667)"><rect width="6" height="6"></rect></g>
<g transform="translate(462,594) scale(3.7766666666667)"><rect width="6" height="6"></rect></g>
<g transform="translate(572,594) scale(3.7766666666667)"><rect width="6" height="6"></rect></g>
<g transform="translate(594,594) scale(3.7766666666667)"><rect width="6" height="6"></rect></g>
<g transform="translate(616,594) scale(3.7766666666667)"><rect width="6" height="6"></rect></g>
<g transform="translate(660,594) scale(3.7766666666667)"><rect width="6" height="6"></rect></g>
<g transform="translate(726,594) scale(3.7766666666667)"><rect width="6" height="6"></rect></g>
<g transform="translate(792,594) scale(3.7766666666667)"><rect width="6" height="6"></rect></g>
<g transform="translate(814,594) scale(3.7766666666667)"><rect width="6" height="6"></rect></g>
<g transform="translate(836,594) scale(3.7766666666667)"><rect width="6" height="6"></rect></g>
<g transform="translate(858,594) scale(3.7766666666667)"><rect width="6" height="6"></rect></g>
<g transform="translate(924,594) scale(3.7766666666667)"><rect width="6" height="6"></rect></g>
<g transform="translate(154,616) scale(3.7766666666667)"><rect width="6" height="6"></rect></g>
<g transform="translate(176,616) scale(3.7766666666667)"><rect width="6" height="6"></rect></g>
<g transform="translate(198,616) scale(3.7766666666667)"><rect width="6" height="6"></rect></g>
<g transform="translate(242,616) scale(3.7766666666667)"><rect width="6" height="6"></rect></g>
<g transform="translate(286,616) scale(3.7766666666667)"><rect width="6" height="6"></rect></g>
<g transform="translate(330,616) scale(3.7766666666667)"><rect width="6" height="6"></rect></g>
<g transform="translate(374,616) scale(3.7766666666667)"><rect width="6" height="6"></rect></g>
<g transform="translate(418,616) scale(3.7766666666667)"><rect width="6" height="6"></rect></g>
<g transform="translate(440,616) scale(3.7766666666667)"><rect width="6" height="6"></rect></g>
<g transform="translate(528,616) scale(3.7766666666667)"><rect width="6" height="6"></rect></g>
<g transform="translate(572,616) scale(3.7766666666667)"><rect width="6" height="6"></rect></g>
<g transform="translate(594,616) scale(3.7766666666667)"><rect width="6" height="6"></rect></g>
<g transform="translate(616,616) scale(3.7766666666667)"><rect width="6" height="6"></rect></g>
<g transform="translate(638,616) scale(3.7766666666667)"><rect width="6" height="6"></rect></g>
<g transform="translate(682,616) scale(3.7766666666667)"><rect width="6" height="6"></rect></g>
<g transform="translate(704,616) scale(3.7766666666667)"><rect width="6" height="6"></rect></g>
<g transform="translate(748,616) scale(3.7766666666667)"><rect width="6" height="6"></rect></g>
<g transform="translate(792,616) scale(3.7766666666667)"><rect width="6" height="6"></rect></g>
<g transform="translate(814,616) scale(3.7766666666667)"><rect width="6" height="6"></rect></g>
<g transform="translate(88,638) scale(3.7766666666667)"><rect width="6" height="6"></rect></g>
<g transform="translate(154,638) scale(3.7766666666667)"><rect width="6" height="6"></rect></g>
<g transform="translate(220,638) scale(3.7766666666667)"><rect width="6" height="6"></rect></g>
<g transform="translate(242,638) scale(3.7766666666667)"><rect width="6" height="6"></rect></g>
<g transform="translate(264,638) scale(3.7766666666667)"><rect width="6" height="6"></rect></g>
<g transform="translate(330,638) scale(3.7766666666667)"><rect width="6" height="6"></rect></g>
<g transform="translate(374,638) scale(3.7766666666667)"><rect width="6" height="6"></rect></g>
<g transform="translate(396,638) scale(3.7766666666667)"><rect width="6" height="6"></rect></g>
<g transform="translate(506,638) scale(3.7766666666667)"><rect width="6" height="6"></rect></g>
<g transform="translate(594,638) scale(3.7766666666667)"><rect width="6" height="6"></rect></g>
<g transform="translate(638,638) scale(3.7766666666667)"><rect width="6" height="6"></rect></g>
<g transform="translate(704,638) scale(3.7766666666667)"><rect width="6" height="6"></rect></g>
<g transform="translate(726,638) scale(3.7766666666667)"><rect width="6" height="6"></rect></g>
<g transform="translate(748,638) scale(3.7766666666667)"><rect width="6" height="6"></rect></g>
<g transform="translate(770,638) scale(3.7766666666667)"><rect width="6" height="6"></rect></g>
<g transform="translate(836,638) scale(3.7766666666667)"><rect width="6" height="6"></rect></g>
<g transform="translate(858,638) scale(3.7766666666667)"><rect width="6" height="6"></rect></g>
<g transform="translate(902,638) scale(3.7766666666667)"><rect width="6" height="6"></rect></g>
<g transform="translate(924,638) scale(3.7766666666667)"><rect width="6" height="6"></rect></g>
<g transform="translate(44,660) scale(3.7766666666667)"><rect width="6" height="6"></rect></g>
<g transform="translate(88,660) scale(3.7766666666667)"><rect width="6" height="6"></rect></g>
<g transform="translate(110,660) scale(3.7766666666667)"><rect width="6" height="6"></rect></g>
<g transform="translate(154,660) scale(3.7766666666667)"><rect width="6" height="6"></rect></g>
<g transform="translate(176,660) scale(3.7766666666667)"><rect width="6" height="6"></rect></g>
<g transform="translate(220,660) scale(3.7766666666667)"><rect width="6" height="6"></rect></g>
<g transform="translate(242,660) scale(3.7766666666667)"><rect width="6" height="6"></rect></g>
<g transform="translate(286,660) scale(3.7766666666667)"><rect width="6" height="6"></rect></g>
<g transform="translate(308,660) scale(3.7766666666667)"><rect width="6" height="6"></rect></g>
<g transform="translate(352,660) scale(3.7766666666667)"><rect width="6" height="6"></rect></g>
<g transform="translate(440,660) scale(3.7766666666667)"><rect width="6" height="6"></rect></g>
<g transform="translate(484,660) scale(3.7766666666667)"><rect width="6" height="6"></rect></g>
<g transform="translate(528,660) scale(3.7766666666667)"><rect width="6" height="6"></rect></g>
<g transform="translate(682,660) scale(3.7766666666667)"><rect width="6" height="6"></rect></g>
<g transform="translate(704,660) scale(3.7766666666667)"><rect width="6" height="6"></rect></g>
<g transform="translate(726,660) scale(3.7766666666667)"><rect width="6" height="6"></rect></g>
<g transform="translate(858,660) scale(3.7766666666667)"><rect width="6" height="6"></rect></g>
<g transform="translate(880,660) scale(3.7766666666667)"><rect width="6" height="6"></rect></g>
<g transform="translate(924,660) scale(3.7766666666667)"><rect width="6" height="6"></rect></g>
<g transform="translate(44,682) scale(3.7766666666667)"><rect width="6" height="6"></rect></g>
<g transform="translate(66,682) scale(3.7766666666667)"><rect width="6" height="6"></rect></g>
<g transform="translate(88,682) scale(3.7766666666667)"><rect width="6" height="6"></rect></g>
<g transform="translate(110,682) scale(3.7766666666667)"><rect width="6" height="6"></rect></g>
<g transform="translate(198,682) scale(3.7766666666667)"><rect width="6" height="6"></rect></g>
<g transform="translate(242,682) scale(3.7766666666667)"><rect width="6" height="6"></rect></g>
<g transform="translate(286,682) scale(3.7766666666667)"><rect width="6" height="6"></rect></g>
<g transform="translate(308,682) scale(3.7766666666667)"><rect width="6" height="6"></rect></g>
<g transform="translate(352,682) scale(3.7766666666667)"><rect width="6" height="6"></rect></g>
<g transform="translate(396,682) scale(3.7766666666667)"><rect width="6" height="6"></rect></g>
<g transform="translate(506,682) scale(3.7766666666667)"><rect width="6" height="6"></rect></g>
<g transform="translate(572,682) scale(3.7766666666667)"><rect width="6" height="6"></rect></g>
<g transform="translate(660,682) scale(3.7766666666667)"><rect width="6" height="6"></rect></g>
<g transform="translate(704,682) scale(3.7766666666667)"><rect width="6" height="6"></rect></g>
<g transform="translate(726,682) scale(3.7766666666667)"><rect width="6" height="6"></rect></g>
<g transform="translate(748,682) scale(3.7766666666667)"><rect width="6" height="6"></rect></g>
<g transform="translate(770,682) scale(3.7766666666667)"><rect width="6" height="6"></rect></g>
<g transform="translate(792,682) scale(3.7766666666667)"><rect width="6" height="6"></rect></g>
<g transform="translate(836,682) scale(3.7766666666667)"><rect width="6" height="6"></rect></g>
<g transform="translate(858,682) scale(3.7766666666667)"><rect width="6" height="6"></rect></g>
<g transform="translate(880,682) scale(3.7766666666667)"><rect width="6" height="6"></rect></g>
<g transform="translate(902,682) scale(3.7766666666667)"><rect width="6" height="6"></rect></g>
<g transform="translate(924,682) scale(3.7766666666667)"><rect width="6" height="6"></rect></g>
<g transform="translate(44,704) scale(3.7766666666667)"><rect width="6" height="6"></rect></g>
<g transform="translate(88,704) scale(3.7766666666667)"><rect width="6" height="6"></rect></g>
<g transform="translate(110,704) scale(3.7766666666667)"><rect width="6" height="6"></rect></g>
<g transform="translate(132,704) scale(3.7766666666667)"><rect width="6" height="6"></rect></g>
<g transform="translate(154,704) scale(3.7766666666667)"><rect width="6" height="6"></rect></g>
<g transform="translate(176,704) scale(3.7766666666667)"><rect width="6" height="6"></rect></g>
<g transform="translate(198,704) scale(3.7766666666667)"><rect width="6" height="6"></rect></g>
<g transform="translate(220,704) scale(3.7766666666667)"><rect width="6" height="6"></rect></g>
<g transform="translate(242,704) scale(3.7766666666667)"><rect width="6" height="6"></rect></g>
<g transform="translate(264,704) scale(3.7766666666667)"><rect width="6" height="6"></rect></g>
<g transform="translate(308,704) scale(3.7766666666667)"><rect width="6" height="6"></rect></g>
<g transform="translate(330,704) scale(3.7766666666667)"><rect width="6" height="6"></rect></g>
<g transform="translate(352,704) scale(3.7766666666667)"><rect width="6" height="6"></rect></g>
<g transform="translate(374,704) scale(3.7766666666667)"><rect width="6" height="6"></rect></g>
<g transform="translate(440,704) scale(3.7766666666667)"><rect width="6" height="6"></rect></g>
<g transform="translate(462,704) scale(3.7766666666667)"><rect width="6" height="6"></rect></g>
<g transform="translate(506,704) scale(3.7766666666667)"><rect width="6" height="6"></rect></g>
<g transform="translate(616,704) scale(3.7766666666667)"><rect width="6" height="6"></rect></g>
<g transform="translate(638,704) scale(3.7766666666667)"><rect width="6" height="6"></rect></g>
<g transform="translate(682,704) scale(3.7766666666667)"><rect width="6" height="6"></rect></g>
<g transform="translate(704,704) scale(3.7766666666667)"><rect width="6" height="6"></rect></g>
<g transform="translate(748,704) scale(3.7766666666667)"><rect width="6" height="6"></rect></g>
<g transform="translate(770,704) scale(3.7766666666667)"><rect width="6" height="6"></rect></g>
<g transform="translate(792,704) scale(3.7766666666667)"><rect width="6" height="6"></rect></g>
<g transform="translate(814,704) scale(3.7766666666667)"><rect width="6" height="6"></rect></g>
<g transform="translate(836,704) scale(3.7766666666667)"><rect width="6" height="6"></rect></g>
<g transform="translate(858,704) scale(3.7766666666667)"><rect width="6" height="6"></rect></g>
<g transform="translate(880,704) scale(3.7766666666667)"><rect width="6" height="6"></rect></g>
<g transform="translate(44,726) scale(3.7766666666667)"><rect width="6" height="6"></rect></g>
<g transform="translate(88,726) scale(3.7766666666667)"><rect width="6" height="6"></rect></g>
<g transform="translate(154,726) scale(3.7766666666667)"><rect width="6" height="6"></rect></g>
<g transform="translate(198,726) scale(3.7766666666667)"><rect width="6" height="6"></rect></g>
<g transform="translate(220,726) scale(3.7766666666667)"><rect width="6" height="6"></rect></g>
<g transform="translate(242,726) scale(3.7766666666667)"><rect width="6" height="6"></rect></g>
<g transform="translate(264,726) scale(3.7766666666667)"><rect width="6" height="6"></rect></g>
<g transform="translate(308,726) scale(3.7766666666667)"><rect width="6" height="6"></rect></g>
<g transform="translate(330,726) scale(3.7766666666667)"><rect width="6" height="6"></rect></g>
<g transform="translate(352,726) scale(3.7766666666667)"><rect width="6" height="6"></rect></g>
<g transform="translate(374,726) scale(3.7766666666667)"><rect width="6" height="6"></rect></g>
<g transform="translate(462,726) scale(3.7766666666667)"><rect width="6" height="6"></rect></g>
<g transform="translate(484,726) scale(3.7766666666667)"><rect width="6" height="6"></rect></g>
<g transform="translate(506,726) scale(3.7766666666667)"><rect width="6" height="6"></rect></g>
<g transform="translate(616,726) scale(3.7766666666667)"><rect width="6" height="6"></rect></g>
<g transform="translate(638,726) scale(3.7766666666667)"><rect width="6" height="6"></rect></g>
<g transform="translate(704,726) scale(3.7766666666667)"><rect width="6" height="6"></rect></g>
<g transform="translate(770,726) scale(3.7766666666667)"><rect width="6" height="6"></rect></g>
<g transform="translate(792,726) scale(3.7766666666667)"><rect width="6" height="6"></rect></g>
<g transform="translate(814,726) scale(3.7766666666667)"><rect width="6" height="6"></rect></g>
<g transform="translate(858,726) scale(3.7766666666667)"><rect width="6" height="6"></rect></g>
<g transform="translate(902,726) scale(3.7766666666667)"><rect width="6" height="6"></rect></g>
<g transform="translate(44,748) scale(3.7766666666667)"><rect width="6" height="6"></rect></g>
<g transform="translate(88,748) scale(3.7766666666667)"><rect width="6" height="6"></rect></g>
<g transform="translate(132,748) scale(3.7766666666667)"><rect width="6" height="6"></rect></g>
<g transform="translate(154,748) scale(3.7766666666667)"><rect width="6" height="6"></rect></g>
<g transform="translate(176,748) scale(3.7766666666667)"><rect width="6" height="6"></rect></g>
<g transform="translate(198,748) scale(3.7766666666667)"><rect width="6" height="6"></rect></g>
<g transform="translate(242,748) scale(3.7766666666667)"><rect width="6" height="6"></rect></g>
<g transform="translate(286,748) scale(3.7766666666667)"><rect width="6" height="6"></rect></g>
<g transform="translate(308,748) scale(3.7766666666667)"><rect width="6" height="6"></rect></g>
<g transform="translate(396,748) scale(3.7766666666667)"><rect width="6" height="6"></rect></g>
<g transform="translate(462,748) scale(3.7766666666667)"><rect width="6" height="6"></rect></g>
<g transform="translate(484,748) scale(3.7766666666667)"><rect width="6" height="6"></rect></g>
<g transform="translate(506,748) scale(3.7766666666667)"><rect width="6" height="6"></rect></g>
<g transform="translate(638,748) scale(3.7766666666667)"><rect width="6" height="6"></rect></g>
<g transform="translate(660,748) scale(3.7766666666667)"><rect width="6" height="6"></rect></g>
<g transform="translate(682,748) scale(3.7766666666667)"><rect width="6" height="6"></rect></g>
<g transform="translate(726,748) scale(3.7766666666667)"><rect width="6" height="6"></rect></g>
<g transform="translate(748,748) scale(3.7766666666667)"><rect width="6" height="6"></rect></g>
<g transform="translate(770,748) scale(3.7766666666667)"><rect width="6" height="6"></rect></g>
<g transform="translate(792,748) scale(3.7766666666667)"><rect width="6" height="6"></rect></g>
<g transform="translate(814,748) scale(3.7766666666667)"><rect width="6" height="6"></rect></g>
<g transform="translate(836,748) scale(3.7766666666667)"><rect width="6" height="6"></rect></g>
<g transform="translate(880,748) scale(3.7766666666667)"><rect width="6" height="6"></rect></g>
<g transform="translate(220,770) scale(3.7766666666667)"><rect width="6" height="6"></rect></g>
<g transform="translate(242,770) scale(3.7766666666667)"><rect width="6" height="6"></rect></g>
<g transform="translate(286,770) scale(3.7766666666667)"><rect width="6" height="6"></rect></g>
<g transform="translate(308,770) scale(3.7766666666667)"><rect width="6" height="6"></rect></g>
<g transform="translate(352,770) scale(3.7766666666667)"><rect width="6" height="6"></rect></g>
<g transform="translate(374,770) scale(3.7766666666667)"><rect width="6" height="6"></rect></g>
<g transform="translate(506,770) scale(3.7766666666667)"><rect width="6" height="6"></rect></g>
<g transform="translate(528,770) scale(3.7766666666667)"><rect width="6" height="6"></rect></g>
<g transform="translate(572,770) scale(3.7766666666667)"><rect width="6" height="6"></rect></g>
<g transform="translate(594,770) scale(3.7766666666667)"><rect width="6" height="6"></rect></g>
<g transform="translate(660,770) scale(3.7766666666667)"><rect width="6" height="6"></rect></g>
<g transform="translate(682,770) scale(3.7766666666667)"><rect width="6" height="6"></rect></g>
<g transform="translate(704,770) scale(3.7766666666667)"><rect width="6" height="6"></rect></g>
<g transform="translate(748,770) scale(3.7766666666667)"><rect width="6" height="6"></rect></g>
<g transform="translate(836,770) scale(3.7766666666667)"><rect width="6" height="6"></rect></g>
<g transform="translate(902,770) scale(3.7766666666667)"><rect width="6" height="6"></rect></g>
<g transform="translate(924,770) scale(3.7766666666667)"><rect width="6" height="6"></rect></g>
<g transform="translate(242,792) scale(3.7766666666667)"><rect width="6" height="6"></rect></g>
<g transform="translate(286,792) scale(3.7766666666667)"><rect width="6" height="6"></rect></g>
<g transform="translate(352,792) scale(3.7766666666667)"><rect width="6" height="6"></rect></g>
<g transform="translate(396,792) scale(3.7766666666667)"><rect width="6" height="6"></rect></g>
<g transform="translate(418,792) scale(3.7766666666667)"><rect width="6" height="6"></rect></g>
<g transform="translate(462,792) scale(3.7766666666667)"><rect width="6" height="6"></rect></g>
<g transform="translate(506,792) scale(3.7766666666667)"><rect width="6" height="6"></rect></g>
<g transform="translate(528,792) scale(3.7766666666667)"><rect width="6" height="6"></rect></g>
<g transform="translate(572,792) scale(3.7766666666667)"><rect width="6" height="6"></rect></g>
<g transform="translate(638,792) scale(3.7766666666667)"><rect width="6" height="6"></rect></g>
<g transform="translate(660,792) scale(3.7766666666667)"><rect width="6" height="6"></rect></g>
<g transform="translate(682,792) scale(3.7766666666667)"><rect width="6" height="6"></rect></g>
<g transform="translate(726,792) scale(3.7766666666667)"><rect width="6" height="6"></rect></g>
<g transform="translate(748,792) scale(3.7766666666667)"><rect width="6" height="6"></rect></g>
<g transform="translate(792,792) scale(3.7766666666667)"><rect width="6" height="6"></rect></g>
<g transform="translate(836,792) scale(3.7766666666667)"><rect width="6" height="6"></rect></g>
<g transform="translate(858,792) scale(3.7766666666667)"><rect width="6" height="6"></rect></g>
<g transform="translate(902,792) scale(3.7766666666667)"><rect width="6" height="6"></rect></g>
<g transform="translate(264,814) scale(3.7766666666667)"><rect width="6" height="6"></rect></g>
<g transform="translate(308,814) scale(3.7766666666667)"><rect width="6" height="6"></rect></g>
<g transform="translate(352,814) scale(3.7766666666667)"><rect width="6" height="6"></rect></g>
<g transform="translate(396,814) scale(3.7766666666667)"><rect width="6" height="6"></rect></g>
<g transform="translate(418,814) scale(3.7766666666667)"><rect width="6" height="6"></rect></g>
<g transform="translate(440,814) scale(3.7766666666667)"><rect width="6" height="6"></rect></g>
<g transform="translate(506,814) scale(3.7766666666667)"><rect width="6" height="6"></rect></g>
<g transform="translate(550,814) scale(3.7766666666667)"><rect width="6" height="6"></rect></g>
<g transform="translate(572,814) scale(3.7766666666667)"><rect width="6" height="6"></rect></g>
<g transform="translate(616,814) scale(3.7766666666667)"><rect width="6" height="6"></rect></g>
<g transform="translate(638,814) scale(3.7766666666667)"><rect width="6" height="6"></rect></g>
<g transform="translate(660,814) scale(3.7766666666667)"><rect width="6" height="6"></rect></g>
<g transform="translate(704,814) scale(3.7766666666667)"><rect width="6" height="6"></rect></g>
<g transform="translate(726,814) scale(3.7766666666667)"><rect width="6" height="6"></rect></g>
<g transform="translate(748,814) scale(3.7766666666667)"><rect width="6" height="6"></rect></g>
<g transform="translate(836,814) scale(3.7766666666667)"><rect width="6" height="6"></rect></g>
<g transform="translate(858,814) scale(3.7766666666667)"><rect width="6" height="6"></rect></g>
<g transform="translate(902,814) scale(3.7766666666667)"><rect width="6" height="6"></rect></g>
<g transform="translate(924,814) scale(3.7766666666667)"><rect width="6" height="6"></rect></g>
<g transform="translate(220,836) scale(3.7766666666667)"><rect width="6" height="6"></rect></g>
<g transform="translate(242,836) scale(3.7766666666667)"><rect width="6" height="6"></rect></g>
<g transform="translate(308,836) scale(3.7766666666667)"><rect width="6" height="6"></rect></g>
<g transform="translate(330,836) scale(3.7766666666667)"><rect width="6" height="6"></rect></g>
<g transform="translate(374,836) scale(3.7766666666667)"><rect width="6" height="6"></rect></g>
<g transform="translate(440,836) scale(3.7766666666667)"><rect width="6" height="6"></rect></g>
<g transform="translate(462,836) scale(3.7766666666667)"><rect width="6" height="6"></rect></g>
<g transform="translate(484,836) scale(3.7766666666667)"><rect width="6" height="6"></rect></g>
<g transform="translate(528,836) scale(3.7766666666667)"><rect width="6" height="6"></rect></g>
<g transform="translate(572,836) scale(3.7766666666667)"><rect width="6" height="6"></rect></g>
<g transform="translate(594,836) scale(3.7766666666667)"><rect width="6" height="6"></rect></g>
<g transform="translate(616,836) scale(3.7766666666667)"><rect width="6" height="6"></rect></g>
<g transform="translate(638,836) scale(3.7766666666667)"><rect width="6" height="6"></rect></g>
<g transform="translate(682,836) scale(3.7766666666667)"><rect width="6" height="6"></rect></g>
<g transform="translate(748,836) scale(3.7766666666667)"><rect width="6" height="6"></rect></g>
<g transform="translate(770,836) scale(3.7766666666667)"><rect width="6" height="6"></rect></g>
<g transform="translate(792,836) scale(3.7766666666667)"><rect width="6" height="6"></rect></g>
<g transform="translate(814,836) scale(3.7766666666667)"><rect width="6" height="6"></rect></g>
<g transform="translate(836,836) scale(3.7766666666667)"><rect width="6" height="6"></rect></g>
<g transform="translate(880,836) scale(3.7766666666667)"><rect width="6" height="6"></rect></g>
<g transform="translate(902,836) scale(3.7766666666667)"><rect width="6" height="6"></rect></g>
<g transform="translate(220,858) scale(3.7766666666667)"><rect width="6" height="6"></rect></g>
<g transform="translate(242,858) scale(3.7766666666667)"><rect width="6" height="6"></rect></g>
<g transform="translate(264,858) scale(3.7766666666667)"><rect width="6" height="6"></rect></g>
<g transform="translate(330,858) scale(3.7766666666667)"><rect width="6" height="6"></rect></g>
<g transform="translate(374,858) scale(3.7766666666667)"><rect width="6" height="6"></rect></g>
<g transform="translate(462,858) scale(3.7766666666667)"><rect width="6" height="6"></rect></g>
<g transform="translate(484,858) scale(3.7766666666667)"><rect width="6" height="6"></rect></g>
<g transform="translate(506,858) scale(3.7766666666667)"><rect width="6" height="6"></rect></g>
<g transform="translate(528,858) scale(3.7766666666667)"><rect width="6" height="6"></rect></g>
<g transform="translate(594,858) scale(3.7766666666667)"><rect width="6" height="6"></rect></g>
<g transform="translate(660,858) scale(3.7766666666667)"><rect width="6" height="6"></rect></g>
<g transform="translate(748,858) scale(3.7766666666667)"><rect width="6" height="6"></rect></g>
<g transform="translate(770,858) scale(3.7766666666667)"><rect width="6" height="6"></rect></g>
<g transform="translate(814,858) scale(3.7766666666667)"><rect width="6" height="6"></rect></g>
<g transform="translate(924,858) scale(3.7766666666667)"><rect width="6" height="6"></rect></g>
<g transform="translate(220,880) scale(3.7766666666667)"><rect width="6" height="6"></rect></g>
<g transform="translate(242,880) scale(3.7766666666667)"><rect width="6" height="6"></rect></g>
<g transform="translate(286,880) scale(3.7766666666667)"><rect width="6" height="6"></rect></g>
<g transform="translate(330,880) scale(3.7766666666667)"><rect width="6" height="6"></rect></g>
<g transform="translate(352,880) scale(3.7766666666667)"><rect width="6" height="6"></rect></g>
<g transform="translate(374,880) scale(3.7766666666667)"><rect width="6" height="6"></rect></g>
<g transform="translate(418,880) scale(3.7766666666667)"><rect width="6" height="6"></rect></g>
<g transform="translate(462,880) scale(3.7766666666667)"><rect width="6" height="6"></rect></g>
<g transform="translate(484,880) scale(3.7766666666667)"><rect width="6" height="6"></rect></g>
<g transform="translate(506,880) scale(3.7766666666667)"><rect width="6" height="6"></rect></g>
<g transform="translate(528,880) scale(3.7766666666667)"><rect width="6" height="6"></rect></g>
<g transform="translate(638,880) scale(3.7766666666667)"><rect width="6" height="6"></rect></g>
<g transform="translate(660,880) scale(3.7766666666667)"><rect width="6" height="6"></rect></g>
<g transform="translate(726,880) scale(3.7766666666667)"><rect width="6" height="6"></rect></g>
<g transform="translate(770,880) scale(3.7766666666667)"><rect width="6" height="6"></rect></g>
<g transform="translate(792,880) scale(3.7766666666667)"><rect width="6" height="6"></rect></g>
<g transform="translate(814,880) scale(3.7766666666667)"><rect width="6" height="6"></rect></g>
<g transform="translate(836,880) scale(3.7766666666667)"><rect width="6" height="6"></rect></g>
<g transform="translate(880,880) scale(3.7766666666667)"><rect width="6" height="6"></rect></g>
<g transform="translate(902,880) scale(3.7766666666667)"><rect width="6" height="6"></rect></g>
<g transform="translate(286,902) scale(3.7766666666667)"><rect width="6" height="6"></rect></g>
<g transform="translate(418,902) scale(3.7766666666667)"><rect width="6" height="6"></rect></g>
<g transform="translate(440,902) scale(3.7766666666667)"><rect width="6" height="6"></rect></g>
<g transform="translate(550,902) scale(3.7766666666667)"><rect width="6" height="6"></rect></g>
<g transform="translate(572,902) scale(3.7766666666667)"><rect width="6" height="6"></rect></g>
<g transform="translate(594,902) scale(3.7766666666667)"><rect width="6" height="6"></rect></g>
<g transform="translate(616,902) scale(3.7766666666667)"><rect width="6" height="6"></rect></g>
<g transform="translate(660,902) scale(3.7766666666667)"><rect width="6" height="6"></rect></g>
<g transform="translate(704,902) scale(3.7766666666667)"><rect width="6" height="6"></rect></g>
<g transform="translate(726,902) scale(3.7766666666667)"><rect width="6" height="6"></rect></g>
<g transform="translate(748,902) scale(3.7766666666667)"><rect width="6" height="6"></rect></g>
<g transform="translate(770,902) scale(3.7766666666667)"><rect width="6" height="6"></rect></g>
<g transform="translate(792,902) scale(3.7766666666667)"><rect width="6" height="6"></rect></g>
<g transform="translate(836,902) scale(3.7766666666667)"><rect width="6" height="6"></rect></g>
<g transform="translate(902,902) scale(3.7766666666667)"><rect width="6" height="6"></rect></g>
<g transform="translate(374,924) scale(3.7766666666667)"><rect width="6" height="6"></rect></g>
<g transform="translate(418,924) scale(3.7766666666667)"><rect width="6" height="6"></rect></g>
<g transform="translate(484,924) scale(3.7766666666667)"><rect width="6" height="6"></rect></g>
<g transform="translate(528,924) scale(3.7766666666667)"><rect width="6" height="6"></rect></g>
<g transform="translate(616,924) scale(3.7766666666667)"><rect width="6" height="6"></rect></g>
<g transform="translate(682,924) scale(3.7766666666667)"><rect width="6" height="6"></rect></g>
<g transform="translate(726,924) scale(3.7766666666667)"><rect width="6" height="6"></rect></g>
<g transform="translate(814,924) scale(3.7766666666667)"><rect width="6" height="6"></rect></g>
<g transform="translate(836,924) scale(3.7766666666667)"><rect width="6" height="6"></rect></g>
<g transform="translate(880,924) scale(3.7766666666667)"><rect width="6" height="6"></rect></g>
</g><g><g transform="translate(44,44)" fill="#000000"><g transform="scale(11)"><path d="M0,0v14h14V0H0z M12,12H2V2h10V12z"></path></g></g>
<g transform="translate(792,44)" fill="#000000"><g transform="scale(11)"><path d="M0,0v14h14V0H0z M12,12H2V2h10V12z"></path></g></g>
<g transform="translate(44,792)" fill="#000000"><g transform="scale(11)"><path d="M0,0v14h14V0H0z M12,12H2V2h10V12z"></path></g></g>
<g transform="translate(88,88)" fill="#000000"><g transform="scale(11)"><rect width="6" height="6"></rect></g></g>
<g transform="translate(836,88)" fill="#000000"><g transform="scale(11)"><rect width="6" height="6"></rect></g></g>
<g transform="translate(88,836)" fill="#000000"><g transform="scale(11)"><rect width="6" height="6"></rect></g></g></g>
</svg>